{
    "asset" : {
        "generator" : "Khronos glTF Blender I/O v3.2.43",
        "version" : "2.0"
    },
    "scene" : 0,
    "scenes" : [
        {
            "name" : "Scene",
            "nodes" : [
                0
            ]
        }
    ],
    "nodes" : [
        {
            "mesh" : 0,
            "name" : "Cube"
        }
    ],
    "materials" : [
        {
            "doubleSided" : true,
            "name" : "Material",
            "pbrMetallicRoughness" : {
                "baseColorFactor" : [
                    0.024714071303606033,
                    0.02305147610604763,
                    0.024292083457112312,
                    1
                ],
                "metallicFactor" : 0,
                "roughnessFactor" : 0.4000000059604645
            }
        },
        {
            "doubleSided" : true,
            "name" : "Material.001",
            "pbrMetallicRoughness" : {
                "baseColorFactor" : [
                    0.10253619402647018,
                    0.10732126235961914,
                    0.12988562881946564,
                    1
                ],
                "metallicFactor" : 0,
                "roughnessFactor" : 0.5
            }
        },
        {
            "doubleSided" : true,
            "name" : "Material.002",
            "pbrMetallicRoughness" : {
                "metallicFactor" : 0,
                "roughnessFactor" : 0.5
            }
        }
    ],
    "meshes" : [
        {
            "name" : "Cube",
            "primitives" : [
                {
                    "attributes" : {
                        "POSITION" : 0,
                        "NORMAL" : 1,
                        "TEXCOORD_0" : 2
                    },
                    "indices" : 3,
                    "material" : 0
                },
                {
                    "attributes" : {
                        "POSITION" : 4,
                        "NORMAL" : 5,
                        "TEXCOORD_0" : 6
                    },
                    "indices" : 7,
                    "material" : 1
                },
                {
                    "attributes" : {
                        "POSITION" : 8,
                        "NORMAL" : 9,
                        "TEXCOORD_0" : 10
                    },
                    "indices" : 11,
                    "material" : 2
                }
            ]
        }
    ],
    "accessors" : [
        {
            "bufferView" : 0,
            "componentType" : 5126,
            "count" : 124,
            "max" : [
                1,
                1,
                2.98581600189209
            ],
            "min" : [
                -2.0027832984924316,
                -1,
                -2.296691417694092
            ],
            "type" : "VEC3"
        },
        {
            "bufferView" : 1,
            "componentType" : 5126,
            "count" : 124,
            "type" : "VEC3"
        },
        {
            "bufferView" : 2,
            "componentType" : 5126,
            "count" : 124,
            "type" : "VEC2"
        },
        {
            "bufferView" : 3,
            "componentType" : 5123,
            "count" : 198,
            "type" : "SCALAR"
        },
        {
            "bufferView" : 4,
            "componentType" : 5126,
            "count" : 32,
            "max" : [
                2.005228042602539,
                1,
                1.848900318145752
            ],
            "min" : [
                -2.0027832984924316,
                -0.7199760675430298,
                -2.3035378456115723
            ],
            "type" : "VEC3"
        },
        {
            "bufferView" : 5,
            "componentType" : 5126,
            "count" : 32,
            "type" : "VEC3"
        },
        {
            "bufferView" : 6,
            "componentType" : 5126,
            "count" : 32,
            "type" : "VEC2"
        },
        {
            "bufferView" : 7,
            "componentType" : 5123,
            "count" : 48,
            "type" : "SCALAR"
        },
        {
            "bufferView" : 8,
            "componentType" : 5126,
            "count" : 4,
            "max" : [
                1,
                -0.6204661130905151,
                2.98581600189209
            ],
            "min" : [
                -1,
                -0.8102330565452576,
                2.98581600189209
            ],
            "type" : "VEC3"
        },
        {
            "bufferView" : 9,
            "componentType" : 5126,
            "count" : 4,
            "type" : "VEC3"
        },
        {
            "bufferView" : 10,
            "componentType" : 5126,
            "count" : 4,
            "type" : "VEC2"
        },
        {
            "bufferView" : 11,
            "componentType" : 5123,
            "count" : 6,
            "type" : "SCALAR"
        }
    ],
    "bufferViews" : [
        {
            "buffer" : 0,
            "byteLength" : 1488,
            "byteOffset" : 0
        },
        {
            "buffer" : 0,
            "byteLength" : 1488,
            "byteOffset" : 1488
        },
        {
            "buffer" : 0,
            "byteLength" : 992,
            "byteOffset" : 2976
        },
        {
            "buffer" : 0,
            "byteLength" : 396,
            "byteOffset" : 3968
        },
        {
            "buffer" : 0,
            "byteLength" : 384,
            "byteOffset" : 4364
        },
        {
            "buffer" : 0,
            "byteLength" : 384,
            "byteOffset" : 4748
        },
        {
            "buffer" : 0,
            "byteLength" : 256,
            "byteOffset" : 5132
        },
        {
            "buffer" : 0,
            "byteLength" : 96,
            "byteOffset" : 5388
        },
        {
            "buffer" : 0,
            "byteLength" : 48,
            "byteOffset" : 5484
        },
        {
            "buffer" : 0,
            "byteLength" : 48,
            "byteOffset" : 5532
        },
        {
            "buffer" : 0,
            "byteLength" : 32,
            "byteOffset" : 5580
        },
        {
            "buffer" : 0,
            "byteLength" : 12,
            "byteOffset" : 5612
        }
    ],
    "buffers" : [
        {
            "byteLength" : 5624,
            "uri" : "data:application/octet-stream;base64,"
        }
    ]
}
